<?xml version="1.0" encoding="utf-8"?>
<!-- Generator: Adobe Illustrator 25.3.1, SVG Export Plug-In . SVG Version: 6.00 Build 0)  -->
<svg version="1.1" id="Layer_1" xmlns="http://www.w3.org/2000/svg" xmlns:xlink="http://www.w3.org/1999/xlink" x="0px" y="0px"
	 viewBox="0 0 1370.89 956.65" style="enable-background:new 0 0 1370.89 956.65;" xml:space="preserve">
<style type="text/css">
	.st0{fill:none;}
	.st1{fill:#ED1C24;}
	.st2{fill:#0072BC;}
</style>
<polygon class="st0" points="7578.1,345.99 7578.1,-360.76 7399.49,-360.74 7399.49,446.15 7399.49,446.15 7399.49,345.99 "/>
<g>
	<g>
		<path class="st1" d="M641.67,140.23h-83.87c-10.68,0-19.33,8.65-19.33,19.33v52.58h31.29v130.07c0,2.67-2.16,4.83-4.83,4.83
			h-27.07c-16.01,0-29-12.98-29-29V100.9c0-16.01,12.98-28.99,28.99-29l103.82-0.01V0v0l-127.4,0c-42.7,0-77.32,34.62-77.32,77.32
			v264.31c0,42.7,34.62,77.32,77.32,77.32h127.4v-71.91V212.14l0,0V140.23z"/>
		<path class="st1" d="M673.92,0v418.95h0c39.72,0,71.91-32.2,71.91-71.91v-58.19c0-2.67,2.16-4.83,4.83-4.83h50.66
			c42.7,0,77.32-34.62,77.32-77.32V77.32c0-42.7-34.62-77.32-77.32-77.32L673.92,0z M787.4,212.1h-41.57V71.91l41.57-0.01
			c10.68,0,19.33,8.65,19.33,19.33v101.54C806.74,203.45,798.08,212.1,787.4,212.1z"/>
	</g>
	<g>
		<g>
			<path class="st2" d="M35.25,934.5l-18.13-28.68h-0.17v28.68H0v-66.38h16.95v29.86h0.17l18.73-29.86h17.78l-21.98,33.1
				l23.38,33.28H35.25z"/>
			<path class="st2" d="M90.33,934.5v-27.06c0-3.12-0.52-5.53-1.58-7.23c-1.31-2.13-3.46-3.19-6.43-3.19c-3.01,0-5.19,0.93-6.57,2.8
				c-1.16,1.6-1.74,3.95-1.74,7.05v27.63H59.11v-66.38H74v21.19h0.17c1.22-2.19,3.07-3.82,5.52-4.9c2.1-0.93,4.53-1.41,7.31-1.41
				c5.9,0,10.41,1.83,13.53,5.48c2.14,2.45,3.51,5.33,4.12,8.62c0.26,1.31,0.42,2.86,0.48,4.64c0.02,0.7,0.06,1.52,0.09,2.46v30.3
				H90.33z"/>
			<path class="st2" d="M151.36,934.5v-5.38h-0.17c-1.25,2.39-3.35,4.22-6.26,5.47c-2.51,1.08-5.27,1.62-8.27,1.62
				c-7.5,0-13.59-2.58-18.26-7.75c-4.49-5.02-6.75-11.31-6.75-18.87c0-7.45,2.29-13.69,6.88-18.74c4.76-5.23,10.8-7.84,18.13-7.84
				c2.97,0,5.71,0.56,8.22,1.67c2.81,1.23,4.91,3.01,6.31,5.34h0.17v-5.3h14.89v49.79H151.36z M147.82,900.52
				c-2.37-2.39-5.35-3.59-8.98-3.59c-3.59,0-6.55,1.25-8.89,3.76c-2.28,2.43-3.41,5.45-3.41,9.07c0,3.47,1.18,6.42,3.54,8.84
				c2.43,2.45,5.38,3.68,8.85,3.68c3.59,0,6.56-1.21,8.93-3.63c2.33-2.42,3.5-5.45,3.5-9.07
				C151.36,905.94,150.19,902.91,147.82,900.52z M133.07,878.81l-4.2-8.8l21.53-11.56l4.74,10.59L133.07,878.81z"/>
			<path class="st2" d="M193.14,896.01v38.49h-14.89v-38.49h-7.35v-11.3h7.35v-16.59h14.89v16.59h7.18v11.3H193.14z"/>
			<path class="st2" d="M259.03,934.5H244.8l-17.86-49.79h15.41l9.5,31.05h0.17l9.55-31.05h15.41L259.03,934.5z"/>
			<path class="st2" d="M325.69,928.5c-5.11,5.02-11.49,7.53-19.14,7.53c-7.64,0-14.01-2.51-19.08-7.53
				c-5.15-5.02-7.71-11.32-7.71-18.91c0-7.62,2.57-13.94,7.71-18.96c5.08-5.02,11.44-7.53,19.08-7.53c7.65,0,14.03,2.51,19.14,7.53
				c5.13,5.02,7.7,11.34,7.7,18.96C333.39,917.18,330.82,923.48,325.69,928.5z M315.13,900.78c-2.3-2.51-5.17-3.76-8.58-3.76
				c-3.38,0-6.23,1.25-8.54,3.76c-2.24,2.43-3.37,5.36-3.37,8.8c0,3.41,1.13,6.35,3.37,8.8c2.31,2.49,5.16,3.72,8.54,3.72
				c3.41,0,6.28-1.24,8.58-3.72c2.25-2.45,3.37-5.38,3.37-8.8C318.5,906.14,317.38,903.21,315.13,900.78z M299.46,956v-13.53h14.23
				V956H299.46z"/>
			<path class="st2" d="M371.18,934.5v-27.19c0-3.24-0.46-5.65-1.41-7.22c-1.2-2.04-3.32-3.07-6.39-3.07
				c-3.24,0-5.54,0.99-6.88,2.98c-1.12,1.63-1.66,4.12-1.66,7.45v27.06h-14.89v-49.79h13.88v5.3h0.22
				c2.86-4.67,7.36-7.01,13.53-7.01c5.04,0,9.29,1.45,12.74,4.34c2.16,1.81,3.71,4.25,4.63,7.31c0.73,2.39,1.1,5.3,1.1,8.71v31.13
				H371.18z"/>
			<path class="st2" d="M446.41,930.6c-0.03,0.76-0.05,1.46-0.05,2.1c-0.09,1.57-0.21,2.99-0.35,4.25c-0.44,3.1-1.3,5.75-2.59,7.97
				c-2.3,3.89-5.98,6.88-11.03,8.98c-4.4,1.84-9.12,2.76-14.14,2.76c-4.55,0-8.63-0.73-12.22-2.19c-4.05-1.66-7.26-4.19-9.59-7.57
				c-1.68-2.46-2.71-5.03-3.05-7.75h17.25c1.45,3.3,4.34,4.95,8.66,4.95c8.08,0,12.13-4.51,12.13-13.53v-1.53h-0.17
				c-1.25,2.31-3.19,4.08-5.82,5.34c-2.39,1.17-5.01,1.75-7.84,1.75c-7.33,0-13.37-2.56-18.12-7.66
				c-4.65-4.97-6.97-11.14-6.97-18.53c0-7.5,2.29-13.8,6.88-18.91c4.76-5.28,10.82-7.93,18.21-7.93c2.83,0,5.4,0.48,7.71,1.45
				c2.68,1.11,4.69,2.73,6.04,4.86h0.17v-4.69h14.89V930.6z M428.24,900.74c-2.28-2.48-5.23-3.72-8.84-3.72
				c-3.39,0-6.25,1.23-8.58,3.68c-2.28,2.4-3.41,5.3-3.41,8.72c0,3.53,1.09,6.52,3.29,8.97c2.24,2.54,5.12,3.81,8.62,3.81
				c3.59,0,6.53-1.15,8.8-3.46c2.28-2.33,3.41-5.3,3.41-8.89C431.52,906.17,430.43,903.13,428.24,900.74z"/>
			<path class="st2" d="M481.05,934.5v-66.38h14.89v66.38H481.05z"/>
			<path class="st2" d="M551.19,893.74c3.3,4.44,4.95,9.72,4.95,15.85c0,7.59-2.56,13.9-7.65,18.91
				c-5.11,5.02-11.49,7.53-19.14,7.53c-7.64,0-14.02-2.51-19.13-7.53c-5.11-5.02-7.67-11.32-7.67-18.91
				c0-7.62,2.56-13.94,7.67-18.96c5.11-5.02,11.49-7.53,19.13-7.53c6.75,0,12.5,1.95,17.26,5.82c2.18-1.43,3.28-3.36,3.28-5.78h-3.5
				v-9.98h10.02v10.29c-0.41,4.23-1.8,7.39-4.16,9.45C551.9,893.2,551.55,893.47,551.19,893.74z M537.88,900.78
				c-2.3-2.51-5.15-3.76-8.54-3.76c-3.38,0-6.23,1.25-8.54,3.76c-2.24,2.43-3.37,5.36-3.37,8.8c0,3.41,1.13,6.35,3.37,8.8
				c2.31,2.49,5.16,3.72,8.54,3.72c3.39,0,6.24-1.24,8.54-3.72c2.25-2.45,3.38-5.38,3.38-8.8
				C541.26,906.14,540.13,903.21,537.88,900.78z M522.26,878.81l-4.2-8.8l21.5-11.56l4.77,10.59L522.26,878.81z"/>
			<path class="st2" d="M593.97,934.5v-27.19c0-3.24-0.46-5.65-1.41-7.22c-1.2-2.04-3.32-3.07-6.39-3.07
				c-3.24,0-5.54,0.99-6.88,2.98c-1.11,1.63-1.66,4.12-1.66,7.45v27.06h-14.89v-49.79h13.88v5.3h0.22
				c2.86-4.67,7.36-7.01,13.53-7.01c5.04,0,9.29,1.45,12.74,4.34c2.16,1.81,3.71,4.25,4.63,7.31c0.73,2.39,1.1,5.3,1.1,8.71v31.13
				H593.97z"/>
			<path class="st2" d="M644.97,915.93v-14.62h25.18v14.62H644.97z"/>
			<path class="st2" d="M718.32,883.01v51.49h-16.93v-51.49h-13.1v-14.88h43.04v14.88H718.32z"/>
			<path class="st2" d="M766.89,934.5v-27.06c0-3.12-0.52-5.53-1.58-7.23c-1.31-2.13-3.46-3.19-6.43-3.19
				c-3.01,0-5.19,0.93-6.57,2.8c-1.16,1.6-1.74,3.95-1.74,7.05v27.63h-14.89v-66.38h14.89v21.19h0.17c1.22-2.19,3.07-3.82,5.52-4.9
				c2.1-0.93,4.53-1.41,7.31-1.41c5.9,0,10.41,1.83,13.53,5.48c2.14,2.45,3.51,5.33,4.12,8.62c0.26,1.31,0.42,2.86,0.48,4.64
				c0.02,0.7,0.06,1.52,0.09,2.46v30.3H766.89z"/>
			<path class="st2" d="M827.92,934.5v-5.38h-0.17c-1.25,2.39-3.35,4.22-6.26,5.47c-2.51,1.08-5.27,1.62-8.27,1.62
				c-7.5,0-13.59-2.58-18.26-7.75c-4.49-5.02-6.75-11.31-6.75-18.87c0-7.45,2.29-13.69,6.88-18.74c4.76-5.23,10.8-7.84,18.13-7.84
				c2.97,0,5.71,0.56,8.22,1.67c2.81,1.23,4.91,3.01,6.31,5.34h0.17v-5.3h14.89v49.79H827.92z M823.98,879.46l-22.15-9.72
				l4.59-10.46l21.67,11.47L823.98,879.46z M824.38,900.52c-2.37-2.39-5.35-3.59-8.98-3.59c-3.59,0-6.55,1.25-8.89,3.76
				c-2.28,2.43-3.41,5.45-3.41,9.07c0,3.47,1.18,6.42,3.54,8.84c2.43,2.45,5.38,3.68,8.85,3.68c3.59,0,6.56-1.21,8.93-3.63
				c2.33-2.42,3.5-5.45,3.5-9.07C827.92,905.94,826.75,902.91,824.38,900.52z"/>
			<path class="st2" d="M883.06,934.5v-27.19c0-3.24-0.46-5.65-1.41-7.22c-1.2-2.04-3.32-3.07-6.39-3.07
				c-3.24,0-5.54,0.99-6.88,2.98c-1.11,1.63-1.66,4.12-1.66,7.45v27.06h-14.89v-49.79h13.88v5.3h0.22
				c2.86-4.67,7.36-7.01,13.53-7.01c5.04,0,9.29,1.45,12.74,4.34c2.16,1.81,3.71,4.25,4.63,7.31c0.73,2.39,1.1,5.3,1.1,8.71v31.13
				H883.06z"/>
			<path class="st2" d="M937.91,934.5v-27.06c0-3.12-0.52-5.53-1.58-7.23c-1.31-2.13-3.46-3.19-6.43-3.19
				c-3.01,0-5.19,0.93-6.57,2.8c-1.16,1.6-1.74,3.95-1.74,7.05v27.63h-14.89v-66.38h14.89v21.19h0.17c1.22-2.19,3.07-3.82,5.52-4.9
				c2.1-0.93,4.53-1.41,7.31-1.41c5.9,0,10.41,1.83,13.53,5.48c2.14,2.45,3.51,5.33,4.12,8.62c0.26,1.31,0.42,2.86,0.48,4.64
				c0.02,0.7,0.06,1.52,0.09,2.46v30.3H937.91z"/>
			<path class="st2" d="M1037.74,915.58c-1.43,6.07-4.56,11.02-9.41,14.84c-4.82,3.79-10.38,5.69-16.68,5.69
				c-7.45,0-13.74-2.58-18.87-7.75c-5.17-5.13-7.75-11.42-7.75-18.87c0-7.39,2.52-13.63,7.57-18.74c5.08-5.17,11.31-7.75,18.69-7.75
				c6.46,0,12.11,1.92,16.99,5.74c4.96,3.86,8.08,8.92,9.37,15.19h-15.06c-2.16-4.67-5.87-7-11.12-7c-3.48,0-6.28,1.27-8.41,3.81
				c-2.04,2.39-3.07,5.34-3.07,8.84c0,3.59,1.07,6.57,3.19,8.93c2.22,2.45,5.1,3.68,8.63,3.68c4.87,0,8.47-2.2,10.77-6.61H1037.74z"
				/>
			<path class="st2" d="M1087.71,928.5c-5.11,5.02-11.49,7.53-19.14,7.53c-7.64,0-14.01-2.51-19.08-7.53
				c-5.15-5.02-7.71-11.32-7.71-18.91c0-7.62,2.57-13.94,7.71-18.96c5.08-5.02,11.44-7.53,19.08-7.53c7.65,0,14.03,2.51,19.14,7.53
				c5.13,5.02,7.7,11.34,7.7,18.96C1095.41,917.18,1092.84,923.48,1087.71,928.5z M1072.82,877.1l-4.16-5.21l-4.12,5.21h-14.53
				l14.01-14.89h9.68l13.45,14.89H1072.82z M1077.15,900.78c-2.3-2.51-5.17-3.76-8.58-3.76c-3.38,0-6.23,1.25-8.54,3.76
				c-2.24,2.43-3.37,5.36-3.37,8.8c0,3.41,1.13,6.35,3.37,8.8c2.31,2.49,5.16,3.72,8.54,3.72c3.41,0,6.28-1.24,8.58-3.72
				c2.25-2.45,3.37-5.38,3.37-8.8C1080.52,906.14,1079.4,903.21,1077.15,900.78z"/>
			<path class="st2" d="M1133.2,934.5v-27.19c0-3.24-0.46-5.65-1.41-7.22c-1.2-2.04-3.32-3.07-6.39-3.07
				c-3.24,0-5.54,0.99-6.88,2.98c-1.11,1.63-1.66,4.12-1.66,7.45v27.06h-14.89v-49.79h13.88v5.3h0.22
				c2.86-4.67,7.36-7.01,13.53-7.01c5.04,0,9.29,1.45,12.74,4.34c2.16,1.81,3.71,4.25,4.63,7.31c0.73,2.39,1.1,5.3,1.1,8.71v31.13
				H1133.2z"/>
			<path class="st2" d="M1208.43,930.6c-0.03,0.76-0.05,1.46-0.05,2.1c-0.09,1.57-0.21,2.99-0.35,4.25c-0.44,3.1-1.3,5.75-2.59,7.97
				c-2.3,3.89-5.98,6.88-11.03,8.98c-4.4,1.84-9.12,2.76-14.14,2.76c-4.55,0-8.63-0.73-12.22-2.19c-4.05-1.66-7.26-4.19-9.59-7.57
				c-1.68-2.46-2.71-5.03-3.05-7.75h17.25c1.45,3.3,4.34,4.95,8.66,4.95c8.08,0,12.13-4.51,12.13-13.53v-1.53h-0.17
				c-1.25,2.31-3.19,4.08-5.82,5.34c-2.39,1.17-5.01,1.75-7.84,1.75c-7.33,0-13.37-2.56-18.12-7.66
				c-4.65-4.97-6.97-11.14-6.97-18.53c0-7.5,2.29-13.8,6.88-18.91c4.76-5.28,10.82-7.93,18.21-7.93c2.83,0,5.4,0.48,7.71,1.45
				c2.68,1.11,4.69,2.73,6.04,4.86h0.17v-4.69h14.89V930.6z M1190.25,900.74c-2.28-2.48-5.23-3.72-8.84-3.72
				c-3.39,0-6.25,1.23-8.58,3.68c-2.28,2.4-3.41,5.3-3.41,8.72c0,3.53,1.09,6.52,3.29,8.97c2.24,2.54,5.12,3.81,8.62,3.81
				c3.59,0,6.53-1.15,8.8-3.46c2.28-2.33,3.41-5.3,3.41-8.89C1193.54,906.17,1192.45,903.13,1190.25,900.74z"/>
			<path class="st2" d="M1243.07,934.5v-66.38h14.89v66.38H1243.07z"/>
			<path class="st2" d="M1313.21,893.74c3.3,4.44,4.95,9.72,4.95,15.85c0,7.59-2.56,13.9-7.65,18.91
				c-5.11,5.02-11.49,7.53-19.14,7.53c-7.64,0-14.02-2.51-19.13-7.53c-5.11-5.02-7.67-11.32-7.67-18.91
				c0-7.62,2.56-13.94,7.67-18.96c5.11-5.02,11.49-7.53,19.13-7.53c6.75,0,12.5,1.95,17.26,5.82c2.18-1.43,3.28-3.36,3.28-5.78h-3.5
				v-9.98h10.02v10.29c-0.41,4.23-1.8,7.39-4.16,9.45C1313.92,893.2,1313.57,893.47,1313.21,893.74z M1299.9,900.78
				c-2.3-2.51-5.15-3.76-8.54-3.76c-3.38,0-6.23,1.25-8.54,3.76c-2.24,2.43-3.37,5.36-3.37,8.8c0,3.41,1.13,6.35,3.37,8.8
				c2.31,2.49,5.16,3.72,8.54,3.72c3.39,0,6.24-1.24,8.54-3.72c2.25-2.45,3.38-5.38,3.38-8.8
				C1303.28,906.14,1302.15,903.21,1299.9,900.78z M1284.28,878.81l-4.2-8.8l21.5-11.56l4.77,10.59L1284.28,878.81z"/>
			<path class="st2" d="M1356,934.5v-27.19c0-3.24-0.46-5.65-1.41-7.22c-1.2-2.04-3.32-3.07-6.39-3.07c-3.24,0-5.54,0.99-6.88,2.98
				c-1.11,1.63-1.66,4.12-1.66,7.45v27.06h-14.89v-49.79h13.88v5.3h0.22c2.86-4.67,7.36-7.01,13.53-7.01
				c5.04,0,9.29,1.45,12.74,4.34c2.16,1.81,3.71,4.25,4.63,7.31c0.73,2.39,1.1,5.3,1.1,8.71v31.13H1356z"/>
		</g>
	</g>
	<g>
		<g>
			<rect x="490.74" y="727.38" class="st2" width="64.44" height="64.44"/>
			<path class="st2" d="M641.54,459.08L308.8,791.83h90.27l178.04-177.5v113.06c0,35.59,28.85,64.44,64.44,64.44h0L641.54,459.08
				L641.54,459.08z"/>
		</g>
		<path class="st2" d="M1038.14,459.08v332.75h166.37c91.89,0,166.37-74.49,166.37-166.37v0c0-91.89-74.49-166.37-166.37-166.37
			H1038.14z M1212.78,726.72h-109.53V524.19h109.53c51.36,0,93,41.64,93,93v16.53C1305.78,685.08,1264.14,726.72,1212.78,726.72z"/>
		<path class="st2" d="M941.91,523.52v138.64L673.61,459.1v332.73h0c35.59,0,64.44-28.85,64.44-64.44V588.69l268.3,203.06V459.08h0
			C970.77,459.08,941.91,487.93,941.91,523.52z"/>
		<path class="st2" d="M64.44,688.72v-165.2c0-35.59-28.85-64.44-64.44-64.44h0v222.33c0,60.98,49.43,110.41,110.41,110.41h166.34v0
			c0-35.59-28.85-64.44-64.44-64.44H103.11C81.75,727.38,64.44,710.07,64.44,688.72z"/>
	</g>
</g>
</svg>
